<?xml version="1.0" standalone="no"?>
<!DOCTYPE svg PUBLIC "-//W3C//DTD SVG 20010904//EN"
 "http://www.w3.org/TR/2001/REC-SVG-20010904/DTD/svg10.dtd">
<svg version="1.0" xmlns="http://www.w3.org/2000/svg"
 width="733.000000pt" height="868.000000pt" viewBox="0 0 733.000000 868.000000"
 preserveAspectRatio="xMidYMid meet">

<g transform="translate(0.000000,868.000000) scale(0.100000,-0.100000)"
fill="#000000" stroke="none">
<path d="M4454 7819 c-14 -23 -45 -73 -68 -113 -24 -39 -69 -113 -100 -164
-51 -83 -56 -96 -44 -112 7 -11 258 -207 558 -436 300 -230 610 -468 690 -529
1160 -890 1311 -1005 1318 -1005 3 0 -3 10 -14 23 -22 26 -6 10 -1099 1142
-462 478 -914 946 -1004 1040 -169 176 -189 195 -203 195 -4 0 -19 -19 -34
-41z"/>
<path d="M1170 6128 c0 -19 -2 -20 -10 -8 -9 13 -11 13 -20 0 -5 -8 -14 -22
-21 -31 -10 -14 -27 -40 -109 -165 -82 -124 -334 -519 -436 -682 -34 -53 -126
-200 -206 -327 -80 -126 -161 -259 -181 -295 -72 -130 -123 -279 -164 -480
-19 -92 -28 -322 -14 -370 5 -19 17 -74 25 -122 32 -173 97 -345 192 -504 30
-50 54 -94 54 -97 0 -12 1393 -1492 1406 -1495 7 -2 68 46 136 106 68 60 317
279 553 486 237 207 431 382 433 389 7 31 -141 196 -736 822 -139 145 -176
194 -223 288 -64 127 -92 247 -92 402 0 212 17 263 176 525 184 304 252 416
298 490 23 36 51 84 64 107 13 22 36 60 50 83 15 24 52 86 82 139 31 53 66
110 78 126 12 17 28 45 35 63 7 17 16 32 21 32 5 0 9 4 9 9 0 5 22 47 48 93
27 46 51 94 54 106 6 20 3 22 -38 22 -32 0 -44 4 -44 15 0 11 -19 15 -87 17
-59 2 -87 7 -86 14 1 8 -28 14 -82 19 -76 6 -105 17 -74 27 6 2 -8 4 -32 5
-23 1 -46 6 -52 12 -6 6 -16 5 -29 -2 -16 -10 -22 -9 -32 6 -11 14 -29 17
-106 17 l-92 0 4 25 c5 22 2 25 -23 25 -22 0 -27 -4 -22 -16 5 -14 3 -15 -15
-5 -11 6 -41 11 -66 11 -34 0 -46 4 -46 15 0 11 -19 15 -87 17 -64 2 -87 6
-85 16 1 9 -17 12 -67 12 -39 0 -73 5 -76 10 -3 6 -1 10 4 10 6 0 11 7 11 15
0 14 -13 15 -85 11 -61 -4 -84 -2 -82 6 2 12 -38 25 -85 27 -23 1 -28 -3 -28
-21z m40 -8 c0 -5 -4 -10 -10 -10 -5 0 -10 5 -10 10 0 6 5 10 10 10 6 0 10 -4
10 -10z"/>
<path d="M4996 4085 c-17 -13 -34 -21 -38 -19 -5 3 -51 -30 -103 -73 -52 -43
-160 -132 -241 -198 -81 -66 -209 -172 -283 -236 -75 -63 -215 -182 -311 -265
-97 -82 -196 -165 -220 -184 -24 -19 -60 -49 -80 -67 -19 -18 -85 -74 -146
-125 -61 -51 -218 -185 -350 -298 -569 -488 -819 -701 -930 -795 -104 -88
-1090 -933 -1849 -1584 -143 -123 -262 -228 -264 -234 -4 -11 4755 -1 5092 12
144 5 190 10 200 21 11 12 170 354 194 416 4 12 -177 14 -1150 14 -635 0
-1169 3 -1186 6 -18 4 -30 10 -29 15 2 5 97 117 211 249 l209 240 1082 0 c851
0 1085 3 1098 13 15 12 178 366 178 386 0 8 -280 11 -935 11 -890 0 -1035 4
-1035 29 0 3 77 95 170 204 l171 197 907 0 c499 0 912 4 918 8 20 13 156 307
146 317 -3 3 -366 5 -806 5 -441 0 -811 3 -823 6 -13 4 -23 12 -23 19 0 7 62
84 138 171 l138 159 767 5 c663 4 768 7 781 20 12 12 116 233 116 246 0 2
-298 4 -662 4 -649 0 -728 3 -728 32 0 4 30 43 68 86 96 113 145 170 151 180
20 30 58 32 670 32 340 0 627 3 637 7 18 7 105 182 97 196 -2 4 -255 7 -561 7
-591 1 -602 1 -586 46 4 11 35 52 68 91 34 40 72 87 85 104 45 58 41 58 599
59 281 0 518 3 525 6 8 3 20 24 27 47 7 23 20 58 30 77 9 19 20 47 24 63 l6
27 -59 0 c-43 0 -60 4 -65 15 -3 8 -17 15 -31 15 -14 0 -25 5 -25 10 0 12 -37
13 -42 1 -2 -5 -41 -5 -93 0 -49 4 -100 5 -112 2 -18 -4 -23 -1 -23 16 0 19
-6 21 -50 21 -27 0 -50 -5 -50 -10 0 -6 -31 -9 -80 -8 l-80 2 0 28 c0 23 -4
28 -26 28 -14 0 -23 -4 -19 -10 4 -6 -7 -10 -24 -10 -17 0 -31 5 -31 10 0 6
-12 10 -26 10 -14 0 -23 -4 -19 -10 4 -6 -13 -10 -44 -10 -36 0 -51 4 -51 14
0 15 -98 26 -227 26 -56 0 -73 3 -73 14 0 25 -31 27 -182 11 -76 -9 -118 -1
-118 20 0 13 -22 15 -130 15 -109 0 -130 2 -130 15 0 11 -12 15 -51 15 -31 0
-48 4 -44 10 8 14 -21 13 -44 -2 -11 -6 -26 -8 -37 -3 -11 4 -38 7 -60 6 -26
-2 -47 3 -57 13 -20 21 -26 20 -61 -9z m1631 -197 c-3 -8 -6 -5 -6 6 -1 11 2
17 5 13 3 -3 4 -12 1 -19z"/>
<path d="M6808 3913 c7 -3 16 -2 19 1 4 3 -2 6 -13 5 -11 0 -14 -3 -6 -6z"/>
</g>
</svg>
