<?xml version="1.0" standalone="no"?>
<!DOCTYPE svg PUBLIC "-//W3C//DTD SVG 20010904//EN"
 "http://www.w3.org/TR/2001/REC-SVG-20010904/DTD/svg10.dtd">
<svg version="1.0" xmlns="http://www.w3.org/2000/svg"
 width="834.000000pt" height="805.000000pt" viewBox="0 0 834.000000 805.000000"
 preserveAspectRatio="xMidYMid meet">

<g transform="translate(0.000000,805.000000) scale(0.100000,-0.100000)"
fill="#000000" stroke="none">
<path d="M2690 8044 c-107 -21 -258 -91 -360 -167 -96 -72 -257 -236 -436
-444 -334 -387 -423 -527 -712 -1128 -171 -355 -266 -570 -372 -835 -395 -987
-655 -2032 -780 -3135 -31 -268 -34 -853 -7 -1020 33 -191 84 -326 172 -450
48 -67 127 -145 171 -168 75 -38 249 -49 364 -21 291 68 605 368 978 934 85
128 180 268 212 310 76 98 176 207 184 199 13 -13 -48 -312 -138 -678 -133
-535 -150 -639 -150 -911 0 -187 3 -229 22 -320 41 -187 63 -205 252 -195 194
10 243 38 482 273 l156 154 34 -26 c54 -41 140 -75 205 -82 161 -17 389 89
582 272 38 35 70 64 72 64 2 0 3 -47 1 -105 -6 -179 31 -314 105 -390 41 -43
85 -63 157 -75 47 -7 57 -5 116 26 197 103 383 290 665 668 l199 268 16 -63
c19 -78 28 -94 74 -138 l36 -35 63 12 c86 18 226 87 324 161 79 60 437 422
580 586 459 530 807 1116 1002 1688 116 340 191 743 191 1023 l0 94 68 0 c93
0 137 -15 189 -63 88 -81 123 -188 123 -374 0 -162 -23 -274 -103 -498 -161
-453 -366 -851 -695 -1350 -139 -212 -360 -529 -409 -589 -33 -40 -87 -149
-107 -215 -25 -84 -21 -146 10 -178 23 -22 31 -25 72 -20 44 6 54 13 172 135
165 169 297 332 623 767 294 392 416 547 547 694 97 109 316 327 344 343 17 9
18 7 11 -34 -16 -91 -82 -254 -215 -528 -76 -157 -153 -325 -170 -374 -61
-176 -74 -333 -41 -491 40 -186 44 -278 37 -725 -6 -415 -6 -426 14 -458 37
-60 93 -62 158 -6 48 40 66 83 86 200 65 371 70 765 15 1133 -38 258 -2 395
207 779 177 324 216 432 235 642 5 58 12 126 15 151 15 118 -70 239 -168 239
-40 0 -108 -30 -188 -82 -25 -17 -134 -121 -243 -231 -185 -188 -198 -199
-193 -166 4 20 40 141 82 270 41 129 91 295 111 369 36 132 37 140 41 352 3
181 1 227 -13 275 -63 218 -159 355 -291 415 -60 27 -178 29 -236 4 -53 -23
-100 -21 -125 7 -30 32 -39 53 -68 157 -34 122 -52 153 -122 222 -121 119
-247 166 -414 155 -90 -6 -241 -49 -306 -87 l-33 -19 0 152 c-1 562 -98 886
-326 1096 -96 87 -158 106 -354 106 -138 0 -214 -12 -310 -49 -11 -4 -29 13
-60 55 -134 184 -363 276 -560 225 -30 -8 -58 -12 -62 -8 -3 4 -23 81 -43 172
-46 201 -102 376 -152 473 -49 94 -165 213 -247 251 -170 80 -276 56 -556
-123 -68 -44 -127 -77 -131 -73 -4 4 -14 32 -24 62 -42 132 -141 278 -270 398
-57 53 -86 72 -122 82 -50 13 -220 22 -263 14z m150 -412 c44 -22 65 -41 108
-102 85 -121 126 -211 130 -289 l4 -66 -73 -80 c-516 -572 -965 -1291 -1390
-2227 -187 -413 -330 -761 -727 -1768 -337 -854 -467 -1313 -502 -1765 -7 -82
-13 -152 -15 -154 -9 -8 -64 95 -74 137 -33 147 -37 859 -6 1200 79 880 333
1866 743 2892 35 87 250 562 344 760 253 531 592 1039 815 1224 317 261 478
320 643 238z m1064 -333 c76 -21 111 -68 172 -234 94 -252 116 -325 121 -408
l6 -77 -144 -148 c-180 -183 -300 -323 -446 -519 -63 -84 -118 -153 -123 -153
-19 0 -19 24 2 206 25 227 30 553 9 654 -7 36 -24 162 -36 280 l-23 215 46 43
c55 50 177 116 253 136 66 18 112 19 163 5z m-714 -1799 c-36 -297 -116 -546
-355 -1100 -192 -444 -237 -573 -365 -1045 -41 -148 -64 -214 -105 -294 -20
-41 -34 -54 -82 -78 -80 -39 -119 -99 -172 -259 -23 -70 -53 -148 -66 -174
-27 -52 -230 -327 -345 -466 -219 -264 -550 -601 -772 -787 -128 -106 -163
-126 -198 -107 -31 17 -60 86 -60 147 0 157 137 746 240 1028 11 28 40 109 65
180 26 72 140 366 255 655 114 289 235 599 270 690 158 413 364 886 551 1260
326 653 641 1133 1037 1582 l107 122 3 -630 c2 -423 -1 -660 -8 -724z m1525
896 c19 -8 44 -30 55 -48 58 -92 -40 -207 -177 -208 -45 0 -54 4 -77 31 -20
23 -26 41 -26 77 1 122 112 195 225 148z m801 -257 c151 -66 233 -169 279
-347 52 -203 77 -518 59 -735 l-7 -76 -91 -78 c-186 -160 -288 -257 -361 -344
l-75 -90 0 53 c0 29 7 141 15 248 36 471 30 841 -17 1099 -33 178 -34 230 -7
265 45 57 83 58 205 5z m-1265 -31 c7 -29 13 -107 14 -173 0 -133 -16 -206
-59 -266 -155 -215 -485 -822 -676 -1244 -518 -1141 -818 -2332 -896 -3547
l-6 -108 -87 -92 c-158 -168 -282 -252 -363 -246 -39 3 -45 7 -62 42 -18 37
-19 48 -7 183 34 403 101 722 327 1558 59 215 124 467 146 560 36 157 51 197
194 532 272 640 365 885 438 1158 72 269 141 456 250 673 105 210 261 453 411
642 103 129 334 380 350 380 7 0 19 -22 26 -52z m732 -175 c20 -51 53 -207 66
-318 30 -240 40 -738 21 -950 -43 -460 -200 -915 -571 -1656 -240 -481 -364
-767 -480 -1107 -43 -127 -101 -282 -128 -343 -134 -299 -333 -552 -549 -697
-210 -140 -322 -163 -322 -65 0 41 19 80 103 210 733 1133 1193 2569 1376
4294 27 256 29 268 61 327 43 81 135 168 281 265 63 41 117 76 120 76 4 1 14
-16 22 -36z m-770 -830 c-171 -1470 -554 -2695 -1161 -3715 -42 -70 -77 -126
-79 -124 -1 1 2 65 7 142 75 1010 369 2043 882 3094 137 282 301 591 325 615
22 22 30 18 26 -12z m2375 -243 c133 -67 219 -231 182 -346 -9 -27 -48 -75
-130 -159 -144 -148 -175 -186 -377 -460 -170 -232 -272 -360 -279 -352 -3 3
16 110 41 238 60 308 99 549 120 739 23 219 22 213 58 247 17 17 72 51 121 77
114 59 171 62 264 16z m-749 -467 c1 -174 -19 -291 -149 -833 -55 -228 -144
-493 -295 -875 -334 -848 -708 -1474 -1159 -1942 -120 -125 -202 -183 -257
-183 l-39 0 0 60 c0 257 81 536 220 760 334 537 591 1118 882 1995 65 198 133
385 150 415 99 176 246 358 462 574 144 144 171 167 177 150 4 -10 8 -65 8
-121z m985 -413 c-2 -201 -77 -524 -180 -780 -250 -615 -678 -1217 -1174
-1654 -121 -106 -233 -197 -237 -192 -6 6 107 327 168 479 275 679 733 1438
1337 2216 58 74 66 81 76 65 6 -11 11 -66 10 -134z"/>
</g>
</svg>
